<svg xmlns="http://www.w3.org/2000/svg" viewBox="0 0 960 360" role="img" aria-label="Secondhand items collage">
  <defs>
    <linearGradient id="bg" x1="0" y1="0" x2="1" y2="1">
      <stop offset="0" stop-color="#e8fff3" />
      <stop offset="1" stop-color="#f6fff0" />
    </linearGradient>
  </defs>
  <rect width="960" height="360" fill="url(#bg)" rx="24" />

  <rect x="40" y="70" width="220" height="140" rx="12" fill="#1f7a55" />
  <rect x="60" y="90" width="180" height="100" rx="8" fill="#0f5132" />
  <text x="150" y="150" text-anchor="middle" font-family="Arial, sans-serif" font-size="18" fill="#d1fae5">TV</text>

  <rect x="280" y="40" width="140" height="240" rx="12" fill="#256c4c" />
  <rect x="300" y="70" width="100" height="60" rx="8" fill="#1b4332" />
  <rect x="300" y="150" width="100" height="90" rx="8" fill="#1b4332" />
  <text x="350" y="280" text-anchor="middle" font-family="Arial, sans-serif" font-size="16" fill="#d1fae5">Fridge</text>

  <rect x="450" y="120" width="240" height="110" rx="14" fill="#2f855a" />
  <rect x="470" y="90" width="120" height="50" rx="10" fill="#276749" />
  <rect x="620" y="90" width="50" height="90" rx="10" fill="#276749" />
  <text x="570" y="185" text-anchor="middle" font-family="Arial, sans-serif" font-size="18" fill="#e6fffa">Sofa</text>

  <rect x="730" y="70" width="160" height="110" rx="10" fill="#22543d" />
  <rect x="745" y="85" width="130" height="70" rx="8" fill="#1c4532" />
  <text x="810" y="155" text-anchor="middle" font-family="Arial, sans-serif" font-size="14" fill="#d1fae5">Laptop</text>

  <rect x="730" y="210" width="70" height="110" rx="16" fill="#2d6a4f" />
  <rect x="742" y="225" width="46" height="70" rx="10" fill="#1b4332" />
  <text x="765" y="310" text-anchor="middle" font-family="Arial, sans-serif" font-size="12" fill="#d1fae5">Phone</text>

  <rect x="520" y="250" width="240" height="70" rx="14" fill="#1f5f46" opacity="0.9" />
  <rect x="560" y="230" width="120" height="40" rx="12" fill="#1b4332" />
  <circle cx="560" cy="320" r="18" fill="#0f3d2e" />
  <circle cx="700" cy="320" r="18" fill="#0f3d2e" />
  <text x="640" y="295" text-anchor="middle" font-family="Arial, sans-serif" font-size="14" fill="#d1fae5">Car</text>

  <text x="70" y="320" font-family="Arial, sans-serif" font-size="12" fill="#2f855a">Secondhand Items Mix</text>
</svg>
